<svg xmlns="http://www.w3.org/2000/svg" width="200" height="150" viewBox="0 0 204.565 92.558"><defs><style>.a{fill:none;stroke:#000;stroke-width:3px;}.b,.c{font-size:25px;font-family:SitkaText, Sitka Text;}.c{fill:#060606;}</style></defs><g transform="translate(463.565 -310.979)"><path class="a" d="M200.965,404.214l.386,1.268h0l.267.869.534.772.935.9.968.625,1.352.275,1.523-.275,1.3-.625.9-.9.564-.772.474-2.137h0v-8.869l.1-1.315.442-1.222.911-1,1.313-.686,1.833-.208h9.2l1.555.132,1.7.895,1.067,1.5.282,1.9v22.172l.492,1.625.426.8.5.682.489.536.538.454.944.335h2.212l.9-.161.731-.457.652-.533.553-.647.326-.715.444-1.922V382.041l.333-1.4.591-1.287,1.156-1.262,2.522-.486h9.2l1.414.263,1.207.421.976.817.642.965.363,1.969v22.172l.526,1.4.668,1.094.935,1,.868.611,1.586.345,1.418-.345,1.235-.611,1-1,.492-1.094.474-1.4v-13.3l.314-1.41.593-1.37,1.284-1.2,2.411-.455h9.2l2.221.379,1.244.78.889,1.294.247,1.981v31.041l.512,1.487.953,1.129,1.315,1,1.985.44,1.964-.44,1.3-1,.651-1.129.522-1.487V359.869l-.467-2.72-.608-1.714-1-1.171-1.432-1.213-1.866-1.129-1.519-.5L283.8,351H214.771s-4.3.037-4.6,0l-2.472.462-1.649.544-1.649,1.129-1.389,1.422-.955,1.505-.564,1.714-.526,2.093s-.106,4.251,0,4.434,0,4.434,0,4.434v35.476Z" transform="translate(-663 -24.012)"/><path class="a" d="M257,341.11V331.7l.653-1.811,1.025-1.7,2.107-.888,2.6-.306h28.283l1.83.724,1.371.916.454,1.308v.041l0,6.418v4.7" transform="translate(-692 -14.521)"/><text class="b" transform="translate(-342 377)"><tspan x="0" y="0">Room</tspan></text><text class="c" transform="translate(-357 346)"><tspan x="0" y="0">Luggage</tspan></text></g></svg>